<svg width="92" height="92" fill="none" xmlns="http://www.w3.org/2000/svg">
<rect width="92" height="92" rx="24" fill="#fff"/><path d="M56.006 70h-19v6h19v-6Z" fill="#000"/>
<path d="M56.006 70h-19v6h19v-6Z" fill="url(#a)"/><path d="M29.173 16.452 15.738 29.887l3.535 3.535 13.435-13.435-3.535-3.535Z" fill="#000"/><path d="M29.173 16.452 15.738 29.887l3.535 3.535 13.435-13.435-3.535-3.535Z" fill="url(#b)"/><path d="m63.113 16.32-3.536 3.535 13.435 13.436 3.536-3.536L63.113 16.32Z" fill="#000"/><path d="m63.113 16.32-3.536 3.535 13.435 13.436 3.536-3.536L63.113 16.32Z" fill="url(#c)"/><path d="m58.556 23.708-2.691-.114a5.056 5.056 0 0 0-4.283 1.432l-5.505 5.505-5.753-5.754a3.84 3.84 0 0 0-3.858-.909 3.618 3.618 0 0 1-3.611-.903l-.854-.854-10.606 10.607 1.727 1.727-.114 2.692a5.057 5.057 0 0 0 1.432 4.283l9.612 9.612a4.985 4.985 0 0 1 1.691-3.259l-2.995-2.995.707-.707 3.129 3.129a4.95 4.95 0 0 1 1.422-.54v-3.695l-1.722-1.722.707-.707 1.015 1.015V36.2a3.61 3.61 0 0 1 3.142-3.625 3.51 3.51 0 0 1 .991.045l-1.23-1.23.708-.707 1.796 1.796a3.542 3.542 0 0 1 3.403-1.908 3.601 3.601 0 0 1 3.175 3.332 3.558 3.558 0 0 1 1.825-.332 3.62 3.62 0 0 1 3.19 3.663v3.424a5.003 5.003 0 0 1 3.816 3.625l2.788-2.788.708.707-3.316 3.315c0 .014.004.027.004.04v3.32a3.963 3.963 0 0 0 2.379-1.128l6.84-6.84a3.838 3.838 0 0 0 .909-3.858 3.618 3.618 0 0 1 .903-3.611l.854-.854L60.284 21.98l-1.728 1.728Z" fill="#000"/><path d="m58.556 23.708-2.691-.114a5.056 5.056 0 0 0-4.283 1.432l-5.505 5.505-5.753-5.754a3.84 3.84 0 0 0-3.858-.909 3.618 3.618 0 0 1-3.611-.903l-.854-.854-10.606 10.607 1.727 1.727-.114 2.692a5.057 5.057 0 0 0 1.432 4.283l9.612 9.612a4.985 4.985 0 0 1 1.691-3.259l-2.995-2.995.707-.707 3.129 3.129a4.95 4.95 0 0 1 1.422-.54v-3.695l-1.722-1.722.707-.707 1.015 1.015V36.2a3.61 3.61 0 0 1 3.142-3.625 3.51 3.51 0 0 1 .991.045l-1.23-1.23.708-.707 1.796 1.796a3.542 3.542 0 0 1 3.403-1.908 3.601 3.601 0 0 1 3.175 3.332 3.558 3.558 0 0 1 1.825-.332 3.62 3.62 0 0 1 3.19 3.663v3.424a5.003 5.003 0 0 1 3.816 3.625l2.788-2.788.708.707-3.316 3.315c0 .014.004.027.004.04v3.32a3.963 3.963 0 0 0 2.379-1.128l6.84-6.84a3.838 3.838 0 0 0 .909-3.858 3.618 3.618 0 0 1 .903-3.611l.854-.854L60.284 21.98l-1.728 1.728Z" fill="url(#d)"/><path d="M43.88 35.69a2.49 2.49 0 0 0-2.725-2.188 2.598 2.598 0 0 0-2.243 2.63v11.357a4 4 0 0 0-4 4v9.673a3.838 3.838 0 0 0 2.086 3.37 3.618 3.618 0 0 1 1.914 3.193v1.207h15v-2.444l1.984-1.822a5.059 5.059 0 0 0 2.016-4.04V45.488a4 4 0 0 0-4-4v-4.323a2.622 2.622 0 0 0-2.276-2.668 2.492 2.492 0 0 0-2.682 2.1h.458V52.04h-1V36.597h.5v-2.431a2.622 2.622 0 0 0-2.276-2.668 2.502 2.502 0 0 0-2.724 2.49v1.702h.5v15.444h-1V35.69h.468Zm-4.569 20.35h-1v-8h1v8ZM53.413 41.8h1v10.443h-1V41.8Z" fill="#000"/><path d="M43.88 35.69a2.49 2.49 0 0 0-2.725-2.188 2.598 2.598 0 0 0-2.243 2.63v11.357a4 4 0 0 0-4 4v9.673a3.838 3.838 0 0 0 2.086 3.37 3.618 3.618 0 0 1 1.914 3.193v1.207h15v-2.444l1.984-1.822a5.059 5.059 0 0 0 2.016-4.04V45.488a4 4 0 0 0-4-4v-4.323a2.622 2.622 0 0 0-2.276-2.668 2.492 2.492 0 0 0-2.682 2.1h.458V52.04h-1V36.597h.5v-2.431a2.622 2.622 0 0 0-2.276-2.668 2.502 2.502 0 0 0-2.724 2.49v1.702h.5v15.444h-1V35.69h.468Zm-4.569 20.35h-1v-8h1v8ZM53.413 41.8h1v10.443h-1V41.8Z" fill="url(#e)"/><defs><linearGradient id="a" x1="46.506" y1="70" x2="46.506" y2="76" gradientUnits="userSpaceOnUse"><stop stop-color="#EF8080"/><stop offset="1" stop-color="#F0145A"/></linearGradient><linearGradient id="b" x1="22.455" y1="23.169" x2="25.991" y2="26.705" gradientUnits="userSpaceOnUse"><stop stop-color="#EF8080"/><stop offset="1" stop-color="#F0145A"/></linearGradient><linearGradient id="c" x1="61.345" y1="18.088" x2="74.78" y2="31.523" gradientUnits="userSpaceOnUse"><stop stop-color="#EF8080"/><stop offset="1" stop-color="#F0145A"/></linearGradient><linearGradient id="d" x1="46.143" y1="21.98" x2="46.143" y2="51.032" gradientUnits="userSpaceOnUse"><stop stop-color="#EF8080"/><stop offset="1" stop-color="#F0145A"/></linearGradient><linearGradient id="e" x1="46.412" y1="31.488" x2="46.412" y2="68.932" gradientUnits="userSpaceOnUse"><stop stop-color="#EF8080"/><stop offset="1" stop-color="#F0145A"/></linearGradient></defs></svg>